# xmcd CD database file
#
# Track frame offsets:
#	150
#	20315
#	39642
#	54907
#	75280
#	94642
#	116752
#	131410
#	153140
#	170602
#	193190
#
# Disc length: 2947 seconds
#
# Revision: 0
# Processed by: cddbd v1.5.2PL0 Copyright (c) Steve Scherf et al.
# Submitted via: CDex 1.51
#
DISCID=7d0b810b
DTITLE=Steve Nieves - Dream Harvest
DYEAR=1997
DGENRE=Jazz
TTITLE0=Dream Harvest
TTITLE1=What Your Heart Tells You To Do
TTITLE2=With Your Love (Victor's Song)
TTITLE3=Wave of the Future
TTITLE4=Diamond Drive
TTITLE5=The Way Back to Heaven
TTITLE6=Juliet
TTITLE7=Southern Light
TTITLE8=Un Puente de Amor (Bridge of Love)
TTITLE9=Be Here Now
TTITLE10=La Rosa Sin Color
EXTD=YEAR: 1997
EXTT0=
EXTT1=
EXTT2=
EXTT3=
EXTT4=
EXTT5=
EXTT6=
EXTT7=
EXTT8=
EXTT9=
EXTT10=
PLAYORDER=
